<?xml version="1.0" encoding="UTF-8" standalone="no"?><svg xmlns="http://www.w3.org/2000/svg" xmlns:xlink="http://www.w3.org/1999/xlink" fill="#000000" height="403.8" preserveAspectRatio="xMidYMid meet" version="1" viewBox="0.0 0.0 436.2 403.8" width="436.2" zoomAndPan="magnify"><defs><clipPath id="a"><path d="M 0 4 L 436.191406 4 L 436.191406 189 L 0 189 Z M 0 4"/></clipPath><clipPath id="b"><path d="M 57 66 L 83 66 L 83 403.851562 L 57 403.851562 Z M 57 66"/></clipPath><clipPath id="c"><path d="M 63 97 L 78 97 L 78 403.851562 L 63 403.851562 Z M 63 97"/></clipPath><clipPath id="d"><path d="M 357 66 L 383 66 L 383 403.851562 L 357 403.851562 Z M 357 66"/></clipPath><clipPath id="e"><path d="M 363 97 L 378 97 L 378 403.851562 L 363 403.851562 Z M 363 97"/></clipPath><clipPath id="f"><path d="M 0 0 L 436.191406 0 L 436.191406 185 L 0 185 Z M 0 0"/></clipPath></defs><g><g clip-path="url(#a)" id="change1_3"><path d="M 436.1875 44.878906 L 436.1875 147.550781 C 436.1875 170.054688 417.945312 188.300781 395.441406 188.300781 L 40.746094 188.300781 C 18.242188 188.300781 0 170.054688 0 147.550781 L 0 44.878906 C 0 22.375 18.242188 4.132812 40.746094 4.132812 L 395.441406 4.132812 C 417.945312 4.132812 436.1875 22.375 436.1875 44.878906" fill="#434345"/></g><g clip-path="url(#b)" id="change2_1"><path d="M 82.847656 403.851562 L 57.941406 403.851562 L 57.941406 66.71875 L 82.847656 66.71875 L 82.847656 403.851562" fill="#5c5d60"/></g><g clip-path="url(#c)" id="change3_1"><path d="M 66.085938 403.851562 L 63.710938 97.453125 L 77.351562 97.453125 L 75.253906 403.832031 L 66.085938 403.851562" fill="#c2c4c6"/></g><g id="change1_1"><path d="M 57.941406 195.757812 C 57.941406 195.757812 70.460938 185.433594 82.847656 194.199219 L 83.132812 176.738281 L 57.53125 174.09375 L 57.941406 195.757812" fill="#434345"/></g><g clip-path="url(#d)" id="change2_2"><path d="M 382.636719 403.851562 L 357.730469 403.851562 L 357.730469 66.71875 L 382.636719 66.71875 L 382.636719 403.851562" fill="#5c5d60"/></g><g clip-path="url(#e)" id="change3_2"><path d="M 365.875 403.851562 L 363.5 97.453125 L 377.136719 97.453125 L 375.039062 403.832031 L 365.875 403.851562" fill="#c2c4c6"/></g><g id="change1_2"><path d="M 357.730469 195.757812 C 357.730469 195.757812 370.25 185.433594 382.636719 194.199219 L 382.921875 176.738281 L 357.316406 174.09375 L 357.730469 195.757812" fill="#434345"/></g><g clip-path="url(#f)" id="change4_2"><path d="M 436.1875 40.75 L 436.1875 143.421875 C 436.1875 165.925781 417.945312 184.171875 395.441406 184.171875 L 40.746094 184.171875 C 18.242188 184.171875 0 165.925781 0 143.421875 L 0 40.75 C 0 18.246094 18.242188 0.00390625 40.746094 0.00390625 L 395.441406 0.00390625 C 417.945312 0.00390625 436.1875 18.246094 436.1875 40.75" fill="#000000"/></g><g id="change5_1"><path d="M 11.5625 141.761719 L 11.5625 42.410156 C 11.5625 26.292969 24.628906 13.226562 40.746094 13.226562 L 395.4375 13.226562 C 411.558594 13.226562 424.625 26.292969 424.625 42.410156 L 424.625 141.761719 C 424.625 157.882812 411.558594 170.949219 395.4375 170.949219 L 40.746094 170.949219 C 24.628906 170.949219 11.5625 157.882812 11.5625 141.761719" fill="#ffffff"/></g><g id="change4_1"><path d="M 395.4375 157.726562 L 40.746094 157.726562 C 31.015625 157.726562 23.125 149.835938 23.125 140.101562 L 23.125 44.070312 C 23.125 34.335938 31.015625 26.449219 40.746094 26.449219 L 395.4375 26.449219 C 405.171875 26.449219 413.0625 34.335938 413.0625 44.070312 L 413.0625 140.101562 C 413.0625 149.835938 405.171875 157.726562 395.4375 157.726562" fill="#000000"/></g></g></svg>