<?xml version="1.0" encoding="UTF-8" standalone="no"?><svg xmlns="http://www.w3.org/2000/svg" xmlns:xlink="http://www.w3.org/1999/xlink" fill="#000000" height="355.7" preserveAspectRatio="xMidYMid meet" version="1" viewBox="-23.7 -4.7 531.9 355.7" width="531.9" zoomAndPan="magnify"><g id="change1_1"><path d="M494.7,191.6c-5.1-10.7-13.8-16.3-23.8-18.4c2.6-2.4,4.8-5.3,6.8-8.6c4.8-7.9,6.9-17.2,7.1-26.4 c0.4-18.9-7.3-38-19.1-52.5c-22.5-27.7-63.4-27.4-93.1-10.5c3.2-16,1.1-33.4-7.9-46.8c-10.5-15.8-28.3-24.2-46.6-27.1 c-38.5-6-86.5,6.9-111.5,38.2c-9.2,11.4-12.8,23.8-11.7,36.6c-3-2.2-6.2-4.2-9-5.9c-8.1-4.7-17-7.9-26.3-9.2 c-19.1-2.6-40,3.6-54.8,16c-11.5,9.6-22,24.1-26,38.6c-1.7,6-2.6,13.3-0.2,19.2c0.1,0.3,0.3,0.6,0.4,1 C31.8,116-23.7,193.6,10.7,235.5c13.8,16.8,35.9,23.2,56.8,26c3.7,29.5,20,55.2,47.8,67.8c27.2,12.4,59.9,11.1,85.3-5 c11.3-7.2,20.1-16.7,26.9-27.7c22.4,32.9,61.2,54.4,101.1,37.3c24.4-10.5,52.9-37.4,57.3-66c23,16.5,58.3,17,82.3,3.4 C494.8,256.2,508.2,219.7,494.7,191.6z M474.4,243.7c-10.4,14.4-28.3,19.4-45.2,18.7c-18.4-0.8-34.4-10-45.3-24.6 c-2.4-3.2-5.7-4.3-8.6-4c-5.2-0.9-11.3,3.4-9.3,9.7c5.2,15.9,2.3,30-7,43.7c-9.1,13.3-22.9,24.6-37.9,30.6 c-35.6,14.3-70.8-11.1-86.8-42.2c-3.6-7-12.5-4-15,2c-13,31.1-45.2,47.5-78.1,43c-33.4-4.5-59.3-30.7-61.6-64.7 c-0.2-3.7-2.7-5.9-6.3-6.3c-28.1-3.2-64.4-15.9-61.4-50.3c2-23.2,19.6-46.2,40.7-55.5c12-5.3,26-5.5,37,2.3c1.4,1,3.2-1.3,1.9-2.5 c-0.7-0.6-1.3-1.1-2-1.6c-0.2-3.9-2.8-7.4-2.8-11.7c-0.1-5.9,2.2-11.4,4.7-16.6c5.2-10.7,13.1-21.4,22.8-28.4 c12.6-9.1,29.9-13.7,45.2-10.6c7.7,1.6,14.8,4.8,21.3,9.1c7.3,4.8,12.6,11.9,19.7,16.7c5.8,3.9,11.7-3.5,9-9 c-1.3-2.7-3.2-5.2-5.4-7.6c-1.6-28.8,23.8-51.4,49.9-61.3c28-10.6,71.9-15.9,94.3,9.1c14.4,16,9.5,37.3,6.9,56.4c0,0.1,0,0.2,0,0.3 c-0.5,0.5-0.9,0.9-1.4,1.4c-2.6,2.8,0.8,7.6,4.2,5.4c0.1-0.1,0.3-0.2,0.4-0.3c2.6,1.9,6.3,1.8,8.2-2c0.6-1.1,1.1-2.3,1.6-3.5 c26.8-13.3,63.8-19.2,84.3,5.5c9,10.8,14.9,25.4,15.3,39.5c0.5,16.2-7.8,25.3-18.8,35.8c-3.2,3-2.2,6.9,0.5,9.1 c0.6,1.4,1.9,2.5,4,2.4C487.4,181.1,489.9,222.1,474.4,243.7z" fill="#000000"/></g></svg>