<?xml version="1.0" encoding="UTF-8" standalone="no"?><svg xmlns="http://www.w3.org/2000/svg" xmlns:xlink="http://www.w3.org/1999/xlink" fill="#000000" height="500.4" preserveAspectRatio="xMidYMid meet" version="1" viewBox="-0.0 -0.1 361.5 500.4" width="361.5" zoomAndPan="magnify"><g id="change1_1"><path clip-rule="evenodd" d="M199.1690979,494.0024414 c-7.7410889,0.6644287-16.6516418,1.030426-24.3950653,0.1913452c-2.4343719-0.2599487-5.8214111,0.3618164-7.837265-1.2861938 c-7.0161133-5.723938-3.7631836-21.2861633-4.1276245-28.9607239c-1.229538-25.9068909-3.0059814-51.7877808-3.2695618-77.771637 c-0.3777008-37.2097168-3.3969269-74.9694519-2.108139-112.1027527c0.7751617-22.3290405,3.4996185-45.0251312,2.473877-67.4264526 c-0.8141327-17.7982483-2.4036865-35.9921417-2.3205109-53.7815552c0.0514832-11.1156616,2.7408447-22.1034241,3.8822479-33.1213379 c2.1333466-20.5874329,3.5310516-43.7987289,2.0460052-64.5093842l-0.3696442,4.2843704 c-1.8921204-13.0366287-5.9500732-38.7345352,0.7010651-51.0474854c1.8047791-3.3387003,5.9469604-3.5856457,9.3116608-3.8112755 c6.8567657-0.4684162,22.9050903-4.1138482,26.7010193,3.8539057c4.1180115,8.6373644,0.7023621,20.605114,0.7151031,29.7696419 c0.0371704,26.2822495,1.165329,51.9032135-0.2755432,78.1896286c-1.1660919,21.2773209-4.2167816,42.4309158-5.0561371,63.7004318 c-1.867157,47.3375854-0.7317352,95.0110168-0.2227631,142.3018188c0.1939087,17.9771118-0.9508667,36.2307739,0.0519867,54.1907043 c1.6612854,29.7270203,2.5570526,59.8117065,6.1099396,89.3811951 C201.8095856,471.2855835,207.7685089,493.2611084,199.1690979,494.0024414z" fill="#000000" fill-rule="evenodd"/></g><g id="change2_1"><path clip-rule="evenodd" d="M354.8869934,117.2648468 c-1.1819458,3.4281158-4.9797058,6.4221344-7.2879944,9.1052551c-8.4790649,9.8674164-19.1309814,16.2266541-29.2874451,24.0753479 c-10.4595642,8.0795288-20.8528442,20.5921173-33.3092957,25.3573761 c-11.5312805,4.4127808-26.4967041,2.2916565-38.7524567,3.5050659 c-36.3773804,3.5903168-73.7758026,4.2932129-110.3216248,4.2380981 c-17.3410187-0.0259857-34.5258102,0.4299469-51.8452454,1.1073608c-7.2282181,0.2848969-16.4070435,1.6563416-22.3404884-3.6287994 c-7.9487801-7.0740662-5.1185265-22.891571-5.3223228-32.2910767c-0.6321793-29.0927582-3.5089607-57.9546814-2.0868149-87.0734253 l154.3366394-8.8068466c16.6412506-0.6519356,33.2736664-1.3246689,49.9182892-1.9121361 c7.7852783-0.2770996,16.817749-2.0535469,24.2495117,0.7449951c17.2201233,6.486599,30.3872681,23.91782,43.9648438,35.4847298 c7.6480103,6.520401,16.8268433,10.6306076,23.6648865,18.1517792 C353.478363,108.6357956,356.5137329,112.5453339,354.8869934,117.2648468z M285.9482117,261.6669922 c0.0012817-7.5175323,3.7720032-25.5710449-3.6768799-29.8892059c-3.8583374-2.2401886-10.3787231,0.0166321-14.4081116,0.5365143 c-11.4832153,1.490509-23.4057159,3.0792847-34.9624939,3.4458008c-7.7390137,0.2422638-15.3795013-1.035614-23.0896454-0.8479309 c-17.9292603,0.4340973-35.7475433,2.2614899-53.6723785,3.0241699c-7.151535,0.3020477-14.1481476-1.4400787-21.216507-1.4270935 c-10.6776505,0.0171661-21.4618759,0.2001648-32.1418686,0.4814148c-10.1099396,0.2635803-24.790184-3.2622681-34.3337097,1.0517273 c-7.9841309,3.6116486-14.3173676,16.362854-19.5136147,22.5422058 c-13.6591949,16.2479553-29.447834,30.0129395-43.3859444,45.9578247L44.498642,351.789032 c4.7226334,5.9412231,7.0314445,13.3599854,14.326725,17.2357178c6.5214348,3.4671326,18.7914925,1.3584595,25.85075,1.7249756 c17.1270828,0.8988953,34.9898071,1.0777283,52.1119537,0.2770996c6.9854279-0.3285522,13.9035339-1.8913269,20.9105377-1.9849243 c23.6573639-0.315033,47.4813385,2.1123047,71.1360931-0.2807312c13.2357483-1.3376465,26.6968689-1.3631287,39.94664-2.4112244 c4.4962158-0.3535156,11.7980042,1.9126587,15.6524353-1.3963928c1.6919556-1.4525757,1.7171936-4.7704773,2.0161133-6.8271484 c0.9849243-6.7720032,1.1949463-13.8029175,0.9355469-20.6342163 C286.4264832,312.2496948,285.9437866,286.9344482,285.9482117,261.6669922z" fill="#000000" fill-rule="evenodd"/></g><g id="change3_1"><path clip-rule="evenodd" d="M358.73172,112.4559097 c-2.3670349-2.1928711-8.8627319-7.0397568-9.5794067-7.6485443l-34.9190979-29.9827957 c-5.2913818-4.6716843-12.4335632-13.6500931-19.6545105-19.8933868c-3.953186-3.4198036-7.97995-6.043663-11.7587585-7.184288 c-2.5570374-0.7715111-6.7158508-1.0907211-11.7233887-1.0226135c-13.1907654,0.1793594-33.0350342,2.8026962-41.3739929,2.5385971 c-7.6394501-0.2386284-15.2744751-0.3836746-22.9082031-0.4793358l-3.1081238-40.9128494 c-0.0314636-0.2724195-0.1159363-1.827395-0.2661896-2.4444981c-0.4790649-1.9594457-1.7813873-2.819855-2.4369507-3.1515415 c-2.9373474-1.4993477-7.1848145-2.1850758-11.9513702-2.2661777c-8.1855927-0.1362098-18.1335907,1.4182456-23.6196747,1.1541442 c-1.4197998-0.0701845-2.6696014,0.5640749-3.5513306,1.5456175c-0.146347-0.0077984-0.2752686-0.0738237-0.4247437-0.0675852 c-2.5042877,0.0977385-4.4554138,2.214709-4.3535156,4.7184744l2.4416351,41.8268089 c-10.6558075,0.3088112-21.3113708,0.7200394-31.9695282,1.3542976 c-17.5188141,1.0392494-34.6635742,2.8453293-51.9354477,3.6797447c-7.3069839,0.3582001-14.6365738,0.5370407-22.0288162,0.4091492 c-2.2440834-0.0415916-4.0551033,1.5898094-4.4577522,3.7234154c-1.3878326,0.866127-2.2952919,2.4122658-2.1640205,4.1554375 c1.7855453,23.6750336,3.7582474,47.4738007,5.3025627,71.2684021c1.0275536,15.8304901,1.8653488,31.6646271,2.3306465,47.4566498 c0.0582275,1.965683,1.3714561,3.5627594,3.1364632,4.1439972c0.689106,1.4286346,2.0480843,2.4912872,3.7421303,2.5978546 c21.7808304,1.4010925,43.5421677,1.7462921,65.2944107,1.5544586c8.7652512-0.0774536,17.5286942-0.2615051,26.2913437-0.4803772 l1.9316406,42.5073395c0.0200043,0.3368835,0.1598663,0.6269836,0.2485046,0.9394379 c-3.6638947,0.1003418-7.3267365,0.2089996-10.9950409,0.2781372c-25.8507538,0.4814148-51.7898865,0.2640991-77.5595322,0.6820831 c-1.6503754,0.0249634-3.0818787,0.9326782-3.8510475,2.2656708c-0.2968559,0.2339478-0.5651169,0.5105133-0.7998428,0.830246 c-7.8110085,10.6300812-15.9282303,21.3241272-24.6230431,31.4478455 c-5.7579823,6.70755-11.7699299,13.1640015-18.1174622,19.1863403c-1.5009079,1.4265442-12.4720364,10.8000793-16.546114,14.9955444 c-2.3875709,2.4611511-2.8203747,4.8463745-2.7704659,5.4556885c0.0826617,1.0049133,1.7930826,4.3691101,4.9882946,8.3431091 c5.982574,7.4359131,16.7733021,19.2929077,18.5156956,21.5793762c1.9792023,2.5942078,13.9248524,16.0862732,22.972147,25.9370422 c5.9490433,6.4736023,11.0129814,11.2991638,11.7501755,11.6183777c3.2768364,1.414093,9.1421776,2.0400391,15.9266701,2.0187073 c11.9134216-0.0343018,26.9516068-1.7462769,33.3947983-1.9464417l46.8161469-0.9009705 c1.1949463,23.3677979,2.4234314,46.7974243,3.9464417,70.1932983c1.0748596,16.5162048,2.2937317,33.0147705,3.7439423,49.4581909 c0.124527,1.414093,0.9186401,2.5640869,2.0062408,3.3043823c0.7847748,1.7987976,2.6194458,2.9810181,4.6649323,2.7221375 l23.4078064-2.0785217c0.6810455-0.0296326,7.8980865-0.212616,10.8021698-0.2848816 c0.5214386-0.0130005,1.0886383-0.026001,1.0886383-0.026001s4.5437927-4.6929932,4.5437927-4.6888428l-7.2048187-119.5032959 l9.3423157-0.1799011l59.1174011-3.2877502c1.8133545-0.1320496,10.6251526-0.3327332,15.7148132-1.3163452 c3.7132874-0.7153625,5.9867249-2.5469055,6.6249084-3.7774658c1.1842957-2.2828369,1.7247009-6.1414185,1.6386719-10.5963135 c-0.133606-6.9508362-1.5529175-15.6599731-1.530304-19.8122864c0.0826721-15.0636597,0.1167297-30.0254211-0.2084656-44.9955139 c-0.2178345-10.0083008-0.5963135-20.0249023-1.2271729-30.076355l-0.9365845-27.1374664 c0.0010376-0.480896,0.1167297-1.9459229-0.0130005-2.5765533c-0.2752686-1.3376617-0.9732056-2.1975555-1.6043701-2.7257538 c-0.1466064-0.1237335-2.3794861-1.1967773-6.0153198-0.9498291c-6.596283,0.4429474-22.7743225,1.9079742-25.0423279,2.0358734 l-55.1361084,2.5396271l0.1967773-43.0225372c25.3415222-0.861969,50.6858978-1.6334839,76.0484619-1.4842682 c1.4887085,0.0077972,2.7522888-0.7501984,3.5874939-1.8533936c8.6820679-6.1294403,36.536438-25.8283997,56.4831238-42.4475555 c11.4107056-9.5060883,20.1824341-18.2708206,22.2546997-23.1390228 C360.914978,117.9843674,361.4850159,115.0075073,358.73172,112.4559097z M188.8996582,9.0882626 c2.1504974,0.0384722,4.1598511,0.1538858,5.837265,0.5453596l2.9651642,39.0979347 c-6.3532562-0.030674-12.7062531-0.063427-19.0576782,0.0114365c-3.3384399,0.0384712-6.6763611,0.1632423-10.0145416,0.2318687 l-2.2617493-38.7272568C172.0998383,10.2600832,181.2394104,8.962451,188.8996582,9.0882626z M191.7600555,488.8108826 l-20.855957,1.8518372c-1.3496094-15.5549622-2.5097351-31.1556702-3.5263672-46.7750854 c-1.5141754-23.2575684-2.7351227-46.5458069-3.9235687-69.7758179l28.8278656-0.5541687l6.9362946,115.0567322 L191.7600555,488.8108826z M257.7368164,237.0546112c2.0761719-0.1154175,15.7655029-1.3501434,23.1847839-1.8913422 l0.8518372,24.7485962c0.6235962,9.9277039,0.9966125,19.8169556,1.211853,29.7015381 c0.3236084,14.8889771,0.289032,29.7696533,0.2063904,44.7480469c-0.0228882,4.1996155,1.3963928,13.0069885,1.5318298,20.0384216 c0.0371704,1.9334717,0.059021,3.6963806-0.217041,5.0210571c-2.7593079,0.2682495-13.7033997,1.3163452-15.3392029,1.4353943 l-58.8143005,3.2705994l-103.0817184,1.9849243c-6.3948364,0.1954651-21.3176117,1.907959-33.1405716,1.9422913 c-5.2235413,0.0124817-9.7717514-0.1876831-12.2950134-1.2778931l-31.1057453-34.7272644l-20.812027-24.1564331 c4.3893871-4.3737793,14.2497816-12.7850037,15.6550303-14.1184998c6.5700436-6.2344666,12.7954044-12.9170532,18.755621-19.8544006 c8.6867561-10.1190491,16.8099556-20.7839661,24.6233025-31.4093628 c25.0898972-0.3795166,50.3310852-0.1876831,75.4885712-0.6560974c11.148407-0.2089996,22.2801819-0.5448456,33.3750458-1.1156769 L257.7368164,237.0546112z M162.1638031,188.8155365c10.3472595-0.2973633,20.6942749-0.6436157,31.0407562-1.0002441 l-0.1920929,43.1301575l-15.6646423,0.7215881c-4.4710236,0.2303162-8.9516449,0.3992767-13.4335632,0.5594025 c0.0855103-0.3945923,0.1954651-0.7839813,0.170517-1.2066498L162.1638031,188.8155365z M332.5924377,134.7433624 c-19.7707214,16.4730682-47.4007568,35.9999542-55.950531,42.0347748c-0.0636902,0.0447083-0.0930481,0.1154022-0.1536255,0.1627197 c-49.9536438-0.2053528-99.8391876,3.0631561-149.7738647,3.5045471 c-21.0189438,0.1866302-42.0467224-0.1497345-63.0926971-1.4525604 c-0.4785538-15.2456207-1.2747574-30.5255585-2.2664375-45.8044434 c-1.5055885-23.1993408-3.4146042-46.3955612-5.1642761-69.4846802c6.6633644,0.0509491,13.288517-0.0899391,19.887928-0.4081078 c17.3051453-0.8432541,34.4826584-2.6446571,52.0347519-3.6880646c16.881958-1.005455,33.756897-1.58461,50.6367798-1.7842445 c7.7987823-0.0904579,15.598877-0.0800629,23.400528-0.0114365c0.2604675,0.0280724,0.5024719,0.1195717,0.7728119,0.1008568 c0.1325684-0.0093575,0.2399292-0.0811005,0.3688507-0.1013756c8.7119751,0.0852585,17.4268036,0.2588997,26.1457825,0.5313225 c7.4125214,0.2344666,23.7873383-1.7504539,36.7322083-2.3722343c6.0327454-0.2895775,11.2362671-0.3660011,14.0267334,0.4730949 c2.7418823,0.8255768,5.5718689,2.8786011,8.440094,5.3574104c7.1972656,6.2266579,14.3103333,15.1743965,19.5843201,19.8336067 l35.0347595,30.0805283c0.4881592,0.4174728,4.8772888,3.8970566,7.4489136,5.9324036 C347.4933472,121.9490051,340.6779175,128.005661,332.5924377,134.7433624z" fill="inherit" fill-rule="evenodd"/></g><g id="change4_1"><path clip-rule="evenodd" d="M77.6957779,83.7551498 c9.80867-1.6989822,19.5991364-2.5167618,29.4132614-2.767868c22.8723297-0.5921478,45.7272491,1.6521988,68.7092743,0.8687286 c7.4312286-0.1320496,14.8052826-0.4897308,22.1517639-0.8344116c7.4138184-0.3410416,14.7946167-0.7371979,22.1663361-1.1499863 c22.1878967-1.2394028,44.2481689-2.8156967,66.6687012-4.2547379l24.5820007-0.0894165 c0.0766602-0.0083237,0.1447754,0.0509491,0.151001,0.1278915c0.007019,0.0764236-0.0501709,0.1445236-0.1268311,0.1486816 l-24.4226379,1.8268814c-22.3430786,2.6410141-44.2783203,5.8008728-66.4397125,7.8325806 c-7.4057617,0.6768875-14.8356934,1.2050934-22.3033142,1.5461349c-7.4185028,0.340004-14.874939,0.4252701-22.3805237,0.4169464 c-23.0555878-0.4003067-45.8345947-3.6157913-68.7648926-4.4034195 C97.3315659,82.6862717,87.5548782,82.7418976,77.6957779,83.7551498z M157.148468,126.6851578 c-5.7720184-0.208992-11.5266266-0.6134644-17.3212585-0.8515701c-3.8757477-0.1622086-7.7579803-0.2303085-11.6326752-0.1918411 c-5.896019,0.0597839-11.760582,0.3576813-17.5832901,0.9456711c-10.5365067,1.0605621-20.7561417,3.1681824-30.7106323,6.8224487 c8.6256714-1.5924072,17.2204056-1.8398743,25.9562836-1.7332916c5.7525253,0.0681,11.495697,0.3831482,17.2929306,0.6176147 c4.824791,0.1959991,9.6646576,0.40448,14.5071259,0.3956299c4.8926392-0.0124664,9.7694092-0.2552643,14.6339722-0.6508942 c10.5440521-0.8520813,20.8437347-2.5983734,30.9497833-5.6989746c0.0881195-0.0207901,0.1442719-0.1060562,0.1252899-0.1954727 c-0.0192413-0.0894241-0.1065826-0.14505-0.1952209-0.1278915 C174.4928589,127.1239395,165.8827972,127.004364,157.148468,126.6851578z M321.8937073,147.4004822 c-22.7826538,2.210556-46.1358643,4.4034271-69.4160461,6.0603027c-9.2747498,0.6602478-18.5229797,1.2305603-27.717392,1.6994934 c-6.1827393,0.3150482-12.3342743,0.6514282-18.4517517,0.8131104c-8.5705719,0.383667-17.9542236,0.6727295-27.7044067,1.2565613 c-13.5388336,0.8136139-27.7652283,2.0530243-41.5387878,3.9947968c-16.354538,2.3041229-31.9965668,5.6859741-45.0552979,10.604599 c13.3142548-3.8497467,29.0745621-5.8305054,45.4374084-6.980484c13.7701874-0.9664764,27.9297791-1.2518921,41.3882904-1.4520416 c9.7507019-0.1492157,19.1195374-0.3238831,27.6833496-0.4559479c6.1931152-0.2126312,12.4278412-0.4767303,18.6781464-0.9622955 c9.2557678-0.7153625,18.5481873-1.7421417,27.8437347-2.972702c23.1829529-3.0621185,46.3014526-7.3548126,68.896698-11.2820282 c0.0894165-0.0124664,0.1523132-0.0935669,0.1403503-0.1829987 C322.0657959,147.4514313,321.9831238,147.3880005,321.8937073,147.4004822z M109.5241699,268.4255066 c9.7023468,0.4554138,19.4078217,1.4348755,29.1756744,2.2999573c6.5110321,0.5791626,13.0436401,1.0813599,19.5814514,1.4432068 c9.8999023,0.5458679,19.7881165,0.7455139,29.6438293,0.4304504c10.3353119-0.3275146,20.5466309-1.3756104,30.6968536-3.3475342 c0.0894318-0.0130005,0.1528473-0.0977173,0.1408997-0.1871643c-0.0119629-0.0899353-0.094101-0.1492004-0.1840515-0.1408691 c-12.8528442,0.9284973-25.6235504,0.1237183-38.4815979-1.0730591c-8.5149384-0.788147-17.0140076-1.8486938-25.5520782-2.7210693 c-5.7145844-0.5838318-11.4403229-1.0735474-17.1627045-1.4099121c-8.6880493-0.5110474-17.3594666-0.6987305-25.9833145-0.40448 c-15.4969864,0.5365295-30.7241516,2.7424011-45.6469193,7.6870117 C80.3253555,267.9482422,94.8639374,267.7355957,109.5241699,268.4255066z M219.2726135,290.9292297 c-8.6979218-0.0249634-16.8281403-0.40448-24.6687927-0.5105286c-12.8674011-0.1746826-24.9396515-0.0426331-37.360733,1.1749268 c-12.7925415,1.2565613-25.8621826,3.8419495-40.561409,8.6586914c14.9552689-3.245636,28.0797501-4.2547302,40.7961349-4.4164124 c12.3332367-0.1580505,24.2144165,0.7111816,36.9170227,1.324646c7.8908081,0.378479,16.0891266,0.5147095,24.8523102,0.5573425 c9.8694916-0.2932129,19.6095276-1.0179443,29.2926483-2.2272034c14.4878845-1.8102417,28.7563782-4.5396423,43.2312622-7.0355835 c0.0896912-0.0130005,0.1541443-0.0941162,0.1429749-0.1835327c-0.0106506-0.0894165-0.0922852-0.152832-0.1817017-0.1445313 c-14.6095276,0.987793-29.0454407,1.9631042-43.5886841,2.5339355 C238.5608673,291.0404968,228.9700317,291.2868958,219.2726135,290.9292297z M252.9294434,252.684433 c-6.7397919-0.2043152-13.455658-0.7320099-20.2216949-1.209259c-4.5032501-0.3150482-9.0181885-0.5963135-13.5406647-0.8177795 c-6.8318024-0.3280487-13.6633453-0.5323639-20.4972382-0.5453644c-12.3441467-0.0207825-24.5453186,0.7070465-36.6526489,2.6836548 c14.5778198-0.3327332,29.0054016,1.6438751,43.5954437,3.342865c5.8167419,0.6768799,11.6391907,1.3033447,17.4751587,1.7207947 c3.9201813,0.2807617,7.8455811,0.4341125,11.7639465,0.4637451c6.6038361,0.0514832,13.1689453-0.2214661,19.7036285-0.8811951 c9.7938385-0.9924622,19.3776703-2.9305878,28.8702545-6.0603027c0.0878601-0.0218353,0.1408691-0.1112518,0.1192932-0.2006683 c-0.0218201-0.0852661-0.1107178-0.1403656-0.1985779-0.1190643 C273.1703796,252.7998352,263.0944824,252.9869995,252.9294434,252.684433z M290.0154114,108.2697983 c-6.7392578-0.204834-13.4551392-0.7325211-20.2211609-1.2050934c-4.5035095-0.3197327-9.0187073-0.6009903-13.5411987-0.8182983 c-6.8312683-0.3316879-13.6630859-0.5323639-20.4967041-0.544838c-12.3444061-0.0254745-24.5453186,0.7028809-36.6529236,2.6789627 c14.5780945-0.3322067,29.0056763,1.6480331,43.5957184,3.3475418c5.8164673,0.6768875,11.6391907,1.3028259,17.4751434,1.7161407 c3.9199524,0.2812576,7.8453369,0.4340973,11.7639465,0.4642563c6.6033325,0.0509491,13.1689453-0.2214737,19.7033997-0.8817291 c9.7935791-0.9877777,19.3778992-2.930069,28.8699646-6.0602951c0.0878601-0.0213165,0.1414185-0.110733,0.1198425-0.1959991 c-0.0220947-0.0894165-0.1112671-0.1403656-0.1988525-0.1190491 C310.2566223,108.388855,300.1804504,108.5723724,290.0154114,108.2697983z M204.5198517,328.5823975 c0.0899353-0.0083008,0.1546631-0.0894165,0.1442719-0.178833c-0.0096283-0.0935669-0.0909882-0.1575317-0.1809235-0.1445313 c-8.8518219,0.4169617-17.7192383,0.2890625-26.6875,0.0717468c-8.8606567-0.2126465-17.7348328-0.6342468-26.6576233-0.9238281 c-5.9420166-0.1918335-11.8892365-0.3623657-17.8333435-0.3197327c-5.979454,0.0426331-11.9474716,0.3067322-17.890274,0.7070313 c-8.0054474,0.5411987-15.9425278,1.3927917-23.8021393,2.6535034c-11.8486938,1.907959-23.3984604,4.7995605-34.6841164,8.9352417 c9.664402-2.252655,19.4023628-3.4878845,29.2637978-4.2547302c9.3732605-0.7325134,18.7860336-0.9030457,28.2747116-0.9581299 c6.285408-0.0384827,12.5864105,0.0426331,18.8983231-0.0384827c9.5029755-0.1278992,19.0108948-0.4387817,28.4857941-0.9326782 C176.2854309,332.4493103,190.5245514,330.9925842,204.5198517,328.5823975z M78.6383362,306.8917847 c2.2167816,0.0550842,4.4502106-0.0681152,6.7132721-0.2090149c4.1889648-0.4470825,8.2630463-1.1749268,12.2695389-2.329071 c5.8866501-1.6906738,11.4437027-4.0415955,17.1759491-6.2604675c0.0873413-0.0218201,0.1406326-0.1112366,0.1180115-0.1965027 c-0.0220947-0.0894165-0.1115112-0.1403809-0.1991119-0.1190491c-6.0124664,0.7922974-11.9011993,1.5289612-17.9261475,2.0145569 c-3.864563,0.3108826-7.6979294,0.5198669-11.6098022,0.3067322c-3.7171783,0.0550842-7.3423386-0.2599487-10.9355164-0.328064 c-5.7231522-0.1107178-11.3142548-0.0296326-16.9388885,0.4855652c-6.1972847,0.5661621-12.2354889,1.8357239-18.49646,4.2926941 c4.8346672-0.6685791,9.3592262-0.5957947,13.8983383-0.3316956c6.5281944,0.3743286,12.801384,1.4816895,19.3202209,2.2058716 C74.2091751,306.6661377,76.4114075,306.8408203,78.6383362,306.8917847z M257.2619019,341.3419495 c-8.282547,0.5027161-16.5474091,0.9373474-24.8369751,1.5591125c-8.8065948,0.659729-17.6100616,1.6095581-26.4974823,2.1590881 c-11.8177643,1.2009277-24.2578278,1.4603577-36.3617859,3.1941833c-8.1858521,1.1712952-16.1432037,3.0236511-23.6690521,6.0727539 c7.7460175-2.0691223,15.7722626-2.8021851,23.9331512-3.0787354c12.2027435-0.4086304,24.5871735,0.3108826,36.4478149,0.2172852 c5.9815369-0.2214661,11.9414978-0.4132996,17.8689728-0.9077148c5.949295-0.4938965,11.8601227-1.2134094,17.7569122-2.0098572 c8.8572845-1.192627,17.6399689-2.6233521,26.4520111-4.1268616c8.7891541-1.4993286,17.5084229-3.1598511,26.3391724-4.7184753 c0.0899353-0.0135193,0.1551819-0.0940857,0.1447754-0.1835022c-0.0101318-0.0894165-0.0909729-0.1533813-0.1809082-0.14505 C282.1165466,340.0089417,269.7154846,340.5927734,257.2619019,341.3419495z" fill="#000000" fill-rule="evenodd"/></g><g id="change5_1"><path clip-rule="evenodd" d="M185.2796021,429.9141846 c0.2835999,5.3963928,0.1346588,10.7875977,0.1546783,16.1455383c-0.3114166,7.0610657-1.3927765,14.4803467-1.6995087,21.7925415 c-0.132309,3.1473694-0.1567535,6.2224731,0.16922,9.2633057c0.0168915,0.0852356-0.0371704,0.1663513-0.1213989,0.1829834 c-0.0844727,0.0218506-0.1668701-0.033783-0.1845551-0.1190491c-0.9248657-2.9768677-1.559906-6.047821-1.9934998-9.2290039 c-0.9841309-7.2185974-0.9747772-14.7018127-1.7899628-21.6906128c-0.3082886-3.8331299-0.726532-7.6657104-0.9724426-11.5331421 c-0.1624603-2.5552368-0.2622833-5.1234436-0.3256989-7.6916809c-0.1476593-5.9880371-0.2040558-11.9719238-0.2833405-17.9641113 c-0.1203613-9.0969238-0.1424561-18.0743103-0.7221222-27.056366c2.5110474,10.4637451,4.7231445,21.0132446,6.1754456,31.8008423 C184.4064636,419.1650391,184.9973145,424.5354614,185.2796021,429.9141846z M179.8085938,231.462738 c0.0855255-0.0130005,0.1460876-0.0894318,0.1349182-0.1746826c0.3935547-3.590332,0.9953156-6.8572845,1.3342896-10.4642487 c0.1304779-1.3839264,0.2232819-2.7387543,0.2165222-4.1309967c-0.0046692-0.9118805-0.0491333-1.8227234-0.1720734-2.7304382 c-0.3127136-2.2952881-0.8172607-4.5141602-1.4213715-6.7501831c-0.9480133-3.513382-2.1965179-6.6139832-3.3763885-10.042099 c-0.5110474,3.5861664-1.2209473,6.8437653-1.5651093,10.4595642c-0.2201843,2.312973-0.3454742,4.591095-0.2550049,6.912384 c0.035614,0.9196777,0.1536255,1.8357239,0.31427,2.7382355c0.2469482,1.3886108,0.5864258,2.7127533,0.9885559,4.0634155 c1.0408173,3.4962311,2.3238831,6.5879822,3.6267242,9.9828339 C179.6450958,231.4117889,179.7233429,231.4752045,179.8085938,231.462738z M186.0583954,29.148016 c-0.3082886-1.7202988-0.8154449-3.33922-1.4325409-4.9747772c-0.9914246-2.6316566-2.2079468-4.7226334-3.4117432-7.2653885 c-0.5214539,2.760067-1.1798859,5.0766735-1.5110474,7.866375c-0.2045746,1.7202988-0.3285675,3.3896484-0.2459106,5.1187859 c0.0319824,0.6732502,0.1432343,1.3418236,0.2921753,2.0015564c0.2316132,1.0220928,0.548996,1.9636059,0.9144897,2.9477482 c0.9760742,2.6274948,2.0842133,4.7486267,3.1543884,7.3418121c0.0065002,0.0852585,0.0813599,0.1497269,0.1674042,0.1450462 c0.0860443-0.0088387,0.1505127-0.0852623,0.1440125-0.170002c0.6716919-2.7429123,1.3670349-5.0595169,1.8037415-7.8492203 c0.1647949-1.0480881,0.2724152-2.0530243,0.2802124-3.1177483 C186.2182617,30.5106335,186.1790161,29.8207474,186.0583954,29.148016z" fill="#000000" fill-rule="evenodd"/></g></svg>